<svg xmlns="http://www.w3.org/2000/svg" role="img" aria-label="gnmt 16 cores per chiplet directed traffic" viewBox="0 0 430 355"><g><title>C0 → C2: 368</title><line x1="73" y1="112" x2="73" y2="248" stroke="hsl(109.65116279069767 78% 49.627906976744185%)" stroke-width="5"/><polygon points="73,248 78,238 68,238" fill="hsl(109.65116279069767 78% 49.627906976744185%)"/><text x="61" y="184" text-anchor="middle" font-size="12">368</text></g><g><title>C0 → C1: 560</title><line x1="127" y1="82" x2="288" y2="82" stroke="hsl(46.86046511627907 78% 42.651162790697676%)" stroke-width="5"/><polygon points="288,82 278,77 278,87" fill="hsl(46.86046511627907 78% 42.651162790697676%)"/><text x="207.5" y="99" text-anchor="middle" font-size="12">560</text></g><g><title>C1 → C3: 368</title><line x1="318" y1="112" x2="318" y2="248" stroke="hsl(109.65116279069767 78% 49.627906976744185%)" stroke-width="5"/><polygon points="318,248 323,238 313,238" fill="hsl(109.65116279069767 78% 49.627906976744185%)"/><text x="306" y="184" text-anchor="middle" font-size="12">368</text></g><g><title>C1 → C0: 608</title><line x1="288" y1="58" x2="127" y2="58" stroke="hsl(31.16279069767441 78% 40.906976744186046%)" stroke-width="5"/><polygon points="127,58 137,63 137,53" fill="hsl(31.16279069767441 78% 40.906976744186046%)"/><text x="207.5" y="49" text-anchor="middle" font-size="12">608</text></g><g><title>C2 → C0: 368</title><line x1="97" y1="248" x2="97" y2="112" stroke="hsl(109.65116279069767 78% 49.627906976744185%)" stroke-width="5"/><polygon points="97,112 92,122 102,122" fill="hsl(109.65116279069767 78% 49.627906976744185%)"/><text x="109" y="184" text-anchor="middle" font-size="12">368</text></g><g><title>C2 → C3: 624</title><line x1="127" y1="302" x2="288" y2="302" stroke="hsl(25.930232558139522 78% 40.325581395348834%)" stroke-width="5"/><polygon points="288,302 278,297 278,307" fill="hsl(25.930232558139522 78% 40.325581395348834%)"/><text x="207.5" y="319" text-anchor="middle" font-size="12">624</text></g><g><title>C3 → C2: 624</title><line x1="288" y1="278" x2="127" y2="278" stroke="hsl(25.930232558139522 78% 40.325581395348834%)" stroke-width="5"/><polygon points="127,278 137,283 137,273" fill="hsl(25.930232558139522 78% 40.325581395348834%)"/><text x="207.5" y="269" text-anchor="middle" font-size="12">624</text></g><g><title>C3 → C1: 368</title><line x1="342" y1="248" x2="342" y2="112" stroke="hsl(109.65116279069767 78% 49.627906976744185%)" stroke-width="5"/><polygon points="342,112 337,122 347,122" fill="hsl(109.65116279069767 78% 49.627906976744185%)"/><text x="354" y="184" text-anchor="middle" font-size="12">368</text></g><rect x="49" y="38" width="72" height="64" rx="6" fill="#eaf0f8" stroke="#8ba5c7"/><text x="85" y="53" text-anchor="middle" font-size="12">C0</text><rect x="62" y="61" width="9.5" height="6.5" fill="#8aafd8"><title>Core 0 within chiplet C0</title></rect><rect x="73.5" y="61" width="9.5" height="6.5" fill="#8aafd8"><title>Core 1 within chiplet C0</title></rect><rect x="85" y="61" width="9.5" height="6.5" fill="#8aafd8"><title>Core 2 within chiplet C0</title></rect><rect x="96.5" y="61" width="9.5" height="6.5" fill="#8aafd8"><title>Core 3 within chiplet C0</title></rect><rect x="62" y="69.5" width="9.5" height="6.5" fill="#8aafd8"><title>Core 4 within chiplet C0</title></rect><rect x="73.5" y="69.5" width="9.5" height="6.5" fill="#8aafd8"><title>Core 5 within chiplet C0</title></rect><rect x="85" y="69.5" width="9.5" height="6.5" fill="#8aafd8"><title>Core 6 within chiplet C0</title></rect><rect x="96.5" y="69.5" width="9.5" height="6.5" fill="#8aafd8"><title>Core 7 within chiplet C0</title></rect><rect x="62" y="78" width="9.5" height="6.5" fill="#8aafd8"><title>Core 8 within chiplet C0</title></rect><rect x="73.5" y="78" width="9.5" height="6.5" fill="#8aafd8"><title>Core 9 within chiplet C0</title></rect><rect x="85" y="78" width="9.5" height="6.5" fill="#8aafd8"><title>Core 10 within chiplet C0</title></rect><rect x="96.5" y="78" width="9.5" height="6.5" fill="#8aafd8"><title>Core 11 within chiplet C0</title></rect><rect x="62" y="86.5" width="9.5" height="6.5" fill="#8aafd8"><title>Core 12 within chiplet C0</title></rect><rect x="73.5" y="86.5" width="9.5" height="6.5" fill="#8aafd8"><title>Core 13 within chiplet C0</title></rect><rect x="85" y="86.5" width="9.5" height="6.5" fill="#8aafd8"><title>Core 14 within chiplet C0</title></rect><rect x="96.5" y="86.5" width="9.5" height="6.5" fill="#8aafd8"><title>Core 15 within chiplet C0</title></rect><rect x="294" y="38" width="72" height="64" rx="6" fill="#eaf0f8" stroke="#8ba5c7"/><text x="330" y="53" text-anchor="middle" font-size="12">C1</text><rect x="307" y="61" width="9.5" height="6.5" fill="#8aafd8"><title>Core 0 within chiplet C1</title></rect><rect x="318.5" y="61" width="9.5" height="6.5" fill="#8aafd8"><title>Core 1 within chiplet C1</title></rect><rect x="330" y="61" width="9.5" height="6.5" fill="#8aafd8"><title>Core 2 within chiplet C1</title></rect><rect x="341.5" y="61" width="9.5" height="6.5" fill="#8aafd8"><title>Core 3 within chiplet C1</title></rect><rect x="307" y="69.5" width="9.5" height="6.5" fill="#8aafd8"><title>Core 4 within chiplet C1</title></rect><rect x="318.5" y="69.5" width="9.5" height="6.5" fill="#8aafd8"><title>Core 5 within chiplet C1</title></rect><rect x="330" y="69.5" width="9.5" height="6.5" fill="#8aafd8"><title>Core 6 within chiplet C1</title></rect><rect x="341.5" y="69.5" width="9.5" height="6.5" fill="#8aafd8"><title>Core 7 within chiplet C1</title></rect><rect x="307" y="78" width="9.5" height="6.5" fill="#8aafd8"><title>Core 8 within chiplet C1</title></rect><rect x="318.5" y="78" width="9.5" height="6.5" fill="#8aafd8"><title>Core 9 within chiplet C1</title></rect><rect x="330" y="78" width="9.5" height="6.5" fill="#8aafd8"><title>Core 10 within chiplet C1</title></rect><rect x="341.5" y="78" width="9.5" height="6.5" fill="#8aafd8"><title>Core 11 within chiplet C1</title></rect><rect x="307" y="86.5" width="9.5" height="6.5" fill="#8aafd8"><title>Core 12 within chiplet C1</title></rect><rect x="318.5" y="86.5" width="9.5" height="6.5" fill="#8aafd8"><title>Core 13 within chiplet C1</title></rect><rect x="330" y="86.5" width="9.5" height="6.5" fill="#8aafd8"><title>Core 14 within chiplet C1</title></rect><rect x="341.5" y="86.5" width="9.5" height="6.5" fill="#8aafd8"><title>Core 15 within chiplet C1</title></rect><rect x="49" y="258" width="72" height="64" rx="6" fill="#eaf0f8" stroke="#8ba5c7"/><text x="85" y="273" text-anchor="middle" font-size="12">C2</text><rect x="62" y="281" width="9.5" height="6.5" fill="#8aafd8"><title>Core 0 within chiplet C2</title></rect><rect x="73.5" y="281" width="9.5" height="6.5" fill="#8aafd8"><title>Core 1 within chiplet C2</title></rect><rect x="85" y="281" width="9.5" height="6.5" fill="#8aafd8"><title>Core 2 within chiplet C2</title></rect><rect x="96.5" y="281" width="9.5" height="6.5" fill="#8aafd8"><title>Core 3 within chiplet C2</title></rect><rect x="62" y="289.5" width="9.5" height="6.5" fill="#8aafd8"><title>Core 4 within chiplet C2</title></rect><rect x="73.5" y="289.5" width="9.5" height="6.5" fill="#8aafd8"><title>Core 5 within chiplet C2</title></rect><rect x="85" y="289.5" width="9.5" height="6.5" fill="#8aafd8"><title>Core 6 within chiplet C2</title></rect><rect x="96.5" y="289.5" width="9.5" height="6.5" fill="#8aafd8"><title>Core 7 within chiplet C2</title></rect><rect x="62" y="298" width="9.5" height="6.5" fill="#8aafd8"><title>Core 8 within chiplet C2</title></rect><rect x="73.5" y="298" width="9.5" height="6.5" fill="#8aafd8"><title>Core 9 within chiplet C2</title></rect><rect x="85" y="298" width="9.5" height="6.5" fill="#8aafd8"><title>Core 10 within chiplet C2</title></rect><rect x="96.5" y="298" width="9.5" height="6.5" fill="#8aafd8"><title>Core 11 within chiplet C2</title></rect><rect x="62" y="306.5" width="9.5" height="6.5" fill="#8aafd8"><title>Core 12 within chiplet C2</title></rect><rect x="73.5" y="306.5" width="9.5" height="6.5" fill="#8aafd8"><title>Core 13 within chiplet C2</title></rect><rect x="85" y="306.5" width="9.5" height="6.5" fill="#8aafd8"><title>Core 14 within chiplet C2</title></rect><rect x="96.5" y="306.5" width="9.5" height="6.5" fill="#8aafd8"><title>Core 15 within chiplet C2</title></rect><rect x="294" y="258" width="72" height="64" rx="6" fill="#eaf0f8" stroke="#8ba5c7"/><text x="330" y="273" text-anchor="middle" font-size="12">C3</text><rect x="307" y="281" width="9.5" height="6.5" fill="#8aafd8"><title>Core 0 within chiplet C3</title></rect><rect x="318.5" y="281" width="9.5" height="6.5" fill="#8aafd8"><title>Core 1 within chiplet C3</title></rect><rect x="330" y="281" width="9.5" height="6.5" fill="#8aafd8"><title>Core 2 within chiplet C3</title></rect><rect x="341.5" y="281" width="9.5" height="6.5" fill="#8aafd8"><title>Core 3 within chiplet C3</title></rect><rect x="307" y="289.5" width="9.5" height="6.5" fill="#8aafd8"><title>Core 4 within chiplet C3</title></rect><rect x="318.5" y="289.5" width="9.5" height="6.5" fill="#8aafd8"><title>Core 5 within chiplet C3</title></rect><rect x="330" y="289.5" width="9.5" height="6.5" fill="#8aafd8"><title>Core 6 within chiplet C3</title></rect><rect x="341.5" y="289.5" width="9.5" height="6.5" fill="#8aafd8"><title>Core 7 within chiplet C3</title></rect><rect x="307" y="298" width="9.5" height="6.5" fill="#8aafd8"><title>Core 8 within chiplet C3</title></rect><rect x="318.5" y="298" width="9.5" height="6.5" fill="#8aafd8"><title>Core 9 within chiplet C3</title></rect><rect x="330" y="298" width="9.5" height="6.5" fill="#8aafd8"><title>Core 10 within chiplet C3</title></rect><rect x="341.5" y="298" width="9.5" height="6.5" fill="#8aafd8"><title>Core 11 within chiplet C3</title></rect><rect x="307" y="306.5" width="9.5" height="6.5" fill="#8aafd8"><title>Core 12 within chiplet C3</title></rect><rect x="318.5" y="306.5" width="9.5" height="6.5" fill="#8aafd8"><title>Core 13 within chiplet C3</title></rect><rect x="330" y="306.5" width="9.5" height="6.5" fill="#8aafd8"><title>Core 14 within chiplet C3</title></rect><rect x="341.5" y="306.5" width="9.5" height="6.5" fill="#8aafd8"><title>Core 15 within chiplet C3</title></rect></svg>